<mxfile host="app.diagrams.net" modified="2023-05-14T18:31:10.994Z" agent="Mozilla/5.0 (X11; Linux x86_64) AppleWebKit/537.36 (KHTML, like Gecko) Chrome/113.0.0.0 Safari/537.36" version="21.3.0" etag="yzAb3y3PpMw16nWYkH7p" type="github">
  <diagram name="Page-1" id="EIgWv5u3qHOg9OUQob-d">
    <mxGraphModel>
      <root>
        <mxCell id="0" />
        <mxCell id="1" parent="0" />
      </root>
    </mxGraphModel>
  </diagram>
</mxfile>
